<?xml version="1.0" encoding="UTF-8" standalone="no"?>
<!-- Created with Inkscape (http://www.inkscape.org/) -->

<svg
   xmlns:dc="http://purl.org/dc/elements/1.1/"
   xmlns:cc="http://creativecommons.org/ns#"
   xmlns:rdf="http://www.w3.org/1999/02/22-rdf-syntax-ns#"
   xmlns:svg="http://www.w3.org/2000/svg"
   xmlns="http://www.w3.org/2000/svg"
   xmlns:xlink="http://www.w3.org/1999/xlink"
   xmlns:sodipodi="http://sodipodi.sourceforge.net/DTD/sodipodi-0.dtd"
   xmlns:inkscape="http://www.inkscape.org/namespaces/inkscape"
   version="1.1"
   width="356.04599"
   height="107.31326"
   id="svg2"
   xml:space="preserve"
   inkscape:version="0.48.2 r9819"
   sodipodi:docname="logo.svg"><sodipodi:namedview
     pagecolor="#ffffff"
     bordercolor="#666666"
     borderopacity="1"
     objecttolerance="10"
     gridtolerance="10"
     guidetolerance="10"
     inkscape:pageopacity="0"
     inkscape:pageshadow="2"
     inkscape:window-width="640"
     inkscape:window-height="480"
     id="namedview166"
     showgrid="false"
     inkscape:zoom="1.1796229"
     inkscape:cx="178.02299"
     inkscape:cy="53.656631"
     inkscape:window-x="0"
     inkscape:window-y="0"
     inkscape:window-maximized="0"
     inkscape:current-layer="svg2" /><metadata
     id="metadata8"><rdf:RDF><cc:Work
         rdf:about=""><dc:format>image/svg+xml</dc:format><dc:type
           rdf:resource="http://purl.org/dc/dcmitype/StillImage" /><dc:title /></cc:Work></rdf:RDF></metadata><defs
     id="defs6"><clipPath
       id="clipPath2010"><path
         d="m 1157.14,3373.81 c 1.29,-77.35 4.54,-154.68 9.72,-231.87 6,-89.32 14.36,-178.69 26.8,-267.37 0.84,-5.95 3.63,-10.43 3.41,0.34 -1.34,65.6 -3.43,131.14 -4.03,196.77 -0.75,82.53 -0.23,165.2 2.18,247.4 13.78,469.87 103.64,817.78 225.28,827.69 l -0.74,222.38 c -1.39,0.07 -2.78,0.2 -4.17,0.2 -146.55,-0.49 -253.07,-429.59 -258.45,-995.54 z"
         id="path2012" /></clipPath><linearGradient
       x1="-2665.6599"
       y1="0"
       x2="2665.6599"
       y2="0"
       id="linearGradient2014"
       gradientUnits="userSpaceOnUse"
       gradientTransform="matrix(-4.835e-5,0.0145799,-0.0145789,-4.835e-5,174.537,431.903)"
       spreadMethod="pad"><stop
         id="stop2016"
         style="stop-color:#e9e9e9;stop-opacity:1"
         offset="0" /><stop
         id="stop2018"
         style="stop-color:#bdbcbc;stop-opacity:1"
         offset="0.66015601" /><stop
         id="stop2020"
         style="stop-color:#918f90;stop-opacity:1"
         offset="1" /></linearGradient><clipPath
       id="clipPath2192"><path
         d="m 1416.44,4146.96 c 1.7,0.13 3.41,0.25 5.12,0.25 148.45,0 284.84,-500.76 304.58,-1118.26 1.18,-37.02 1.56,-73.63 1.38,-109.75 -0.14,-26.3 -1.16,-52.58 -0.33,-78.87 0.28,-8.98 1.82,-17.95 4.81,-0.76 4.41,25.47 5.58,51.97 7.48,77.71 1.68,22.58 3.06,45.46 4.18,68.63 1.45,29.83 2.44,60.13 3.01,90.82 -0.41,24.81 -1.03,49.79 -1.85,74.96 -21.8,666.83 -164.82,1208.56 -328.38,1217.64 l 0,-222.37 z"
         id="path2194" /></clipPath><linearGradient
       x1="-2661.96"
       y1="0"
       x2="2661.96"
       y2="0"
       id="linearGradient2196"
       gradientUnits="userSpaceOnUse"
       gradientTransform="matrix(0,0.01458,-0.014579,0,173.829,431.912)"
       spreadMethod="pad"><stop
         id="stop2198"
         style="stop-color:#d3d2d2;stop-opacity:1"
         offset="0" /><stop
         id="stop2200"
         style="stop-color:#b2b1b1;stop-opacity:1"
         offset="0.66015601" /><stop
         id="stop2202"
         style="stop-color:#918f90;stop-opacity:1"
         offset="1" /></linearGradient><linearGradient
       x1="-2665.6599"
       y1="0"
       x2="2665.6599"
       y2="0"
       id="linearGradient6604"
       xlink:href="#linearGradient2014"
       gradientUnits="userSpaceOnUse"
       gradientTransform="matrix(-4.835e-5,0.0145799,-0.0145789,-4.835e-5,174.537,431.903)"
       spreadMethod="pad" /><linearGradient
       x1="-2661.96"
       y1="0"
       x2="2661.96"
       y2="0"
       id="linearGradient6606"
       xlink:href="#linearGradient2196"
       gradientUnits="userSpaceOnUse"
       gradientTransform="matrix(0,0.01458,-0.014579,0,173.829,431.912)"
       spreadMethod="pad" /></defs><path
     inkscape:connector-curvature="0"
     style="fill:#231f20;fill-opacity:1;fill-rule:evenodd;stroke:none"
     id="path6484"
     d="m 276.669,53.693925 -208.8645,0 c 0.744,-2.2905 1.215,-4.956 0.3225,-7.128 -0.555,-1.347 -1.5285,-2.289 -2.7,-2.9445 1.365,-0.687 2.652,-1.5255 3.798,-2.547 2.022,-1.7865 3.4635,-4.023 4.44,-6.5265 1.2075,-3.0945 2.031,-6.894 0.3255,-9.8865 l 213.843,0 -11.1645,29.0325" /><path
     inkscape:connector-curvature="0"
     style="fill:#ffffff;fill-opacity:1;fill-rule:nonzero;stroke:none"
     id="path6486"
     d="m 266.3295,48.659925 -9.2655,0 -6.846,-14.304 -5.5755,14.304 -6.3165,0 7.665,-19.662 9.3645,0 6.7155,14.4195 5.622,-14.4195 6.3,0 -7.6635,19.662 z m -53.7255,0 -6.9,0 18.975,-19.662 8.0685,0 3.438,19.662 -6.9435,0 -0.7275,-3.273 -12.618,0 -3.2925,3.273 z m 7.53,-8.001 7.959,0 -1.3095,-6.96 -6.6495,6.96 z m -10.476,-6.87 -16.3155,0 -1.161,2.9745 15.372,0 -1.611,4.134 -15.372,0 -1.1715,3.006 16.5675,0 -1.854,4.7565 -22.8825,0 7.6635,-19.662 22.632,0 -1.8675,4.791 z m -30.498,9.327 c -0.3225,0.825 -0.7755,1.608 -1.353,2.3475 -0.582,0.7395 -1.2225,1.3485 -1.9305,1.821 -0.837,0.564 -1.8075,0.969 -2.901,1.218 -1.0935,0.2475 -2.541,0.369 -4.3515,0.369 l -4.4115,0 c -3.1335,0 -5.1045,-0.438 -5.919,-1.3065 -0.8205,-0.8715 -0.7815,-2.4795 0.1035,-4.824 l 1.014,-2.601 6.1215,0 -0.273,0.699 c -0.5025,1.2885 -0.6315,2.1315 -0.3855,2.538 0.2445,0.405 0.945,0.6075 2.094,0.6075 l 2.853,0 c 1.017,0 1.7925,-0.1845 2.3205,-0.5535 0.5295,-0.3705 1.014,-1.113 1.4505,-2.2365 l 4.755,-12.1965 6.3165,0 -5.5035,14.118 z m -42.9465,-14.118 6.315,0 -4.545,11.661 c -0.519,1.329 -0.549,2.2215 -0.0885,2.673 0.459,0.4545 1.7535,0.681 3.885,0.681 l 3.5895,0 c 1.776,0 3.057,-0.24 3.8475,-0.7215 0.7905,-0.4785 1.431,-1.3575 1.929,-2.6325 l 4.5465,-11.661 6.3285,0 -5.271,13.5225 c -0.903,2.316 -2.1975,3.957 -3.891,4.926 -1.689,0.9705 -4.146,1.452 -7.3755,1.452 l -7.0665,0 c -3.7935,0 -6.219,-0.465 -7.284,-1.389 -1.065,-0.924 -1.128,-2.586 -0.192,-4.989 l 5.2725,-13.5225 z m -33.6885,19.662 -6.8985,0 18.975,-19.662 8.0685,0 3.4365,19.662 -6.942,0 -0.7275,-3.273 -12.618,0 -3.294,3.273 z m 7.5315,-8.001 7.959,0 -1.3095,-6.96 -6.6495,6.96 z m -10.476,-6.87 -16.317,0 -1.1595,2.9745 15.372,0 -1.611,4.134 -15.372,0 -1.1715,3.006 16.5675,0 -1.854,4.7565 -22.884,0 7.6665,-19.662 22.6305,0 -1.8675,4.791" /><path
     inkscape:connector-curvature="0"
     style="fill:#231f20;fill-opacity:1;fill-rule:nonzero;stroke:none"
     id="path6488"
     d="m 50.8095,39.098925 c 1.0785,0 2.0145,-0.3255 2.8305,-0.966 0.8205,-0.651 1.4625,-1.5855 1.938,-2.814 0.435,-1.125 0.4815,-2.0385 0.1425,-2.7315 -0.3435,-0.7035 -1.0005,-1.05 -1.983,-1.05 l -22.554,0 -2.9295,7.5615 22.5555,0 z m -5.652,17.568 c 1.128,0 2.148,-0.3675 3.0345,-1.092 0.888,-0.7245 1.599,-1.764 2.124,-3.1185 0.4755,-1.2285 0.54,-2.2155 0.186,-2.94 -0.3645,-0.7245 -1.08,-1.092 -2.1495,-1.092 l -23.7105,0 -3.195,8.2425 23.7105,0 z m 0.576,10.3965 -45.7335,0 17.8575,-45.807 43.4655,0 c 5.3985,0 9.012,1.0605 10.8555,3.171 1.833,2.112 1.908,5.325 0.2295,9.63 -0.9495,2.436 -2.307,4.443 -4.0785,6.0075 -1.7655,1.575 -4.047,2.8035 -6.8355,3.6855 2.8725,0.462 4.662,1.575 5.3835,3.33 0.7215,1.7535 0.432,4.284 -0.8535,7.581 -1.6905,4.338 -4.131,7.4775 -7.3455,9.4515 -3.2115,1.9635 -7.524,2.9505 -12.945,2.9505" /><path
     inkscape:connector-curvature="0"
     style="fill:#231f20;fill-opacity:1;fill-rule:nonzero;stroke:none"
     id="path6490"
     d="m 65.445,64.609425 3.561,-8.931 3.765,0 -3.024,7.581 3.2415,0 -0.5385,1.35 -7.005,0 z m 11.652,-6.8175 c 0.3315,-0.831 0.9075,-1.425 1.728,-1.779 0.825,-0.3525 2.019,-0.528 3.5835,-0.528 1.563,0 2.6175,0.174 3.1635,0.522 0.54,0.3495 0.642,0.945 0.3075,1.785 L 84,62.503425 c -0.333,0.8355 -0.909,1.428 -1.725,1.779 -0.8145,0.3525 -2.013,0.5265 -3.585,0.5265 -1.5735,0 -2.631,-0.174 -3.1665,-0.5265 -0.534,-0.351 -0.639,-0.9435 -0.306,-1.779 l 1.8795,-4.7115 z m 4.0035,-0.6 -2.3265,5.832 c -0.0615,0.1575 -0.0585,0.2685 0.0135,0.3375 0.0705,0.066 0.2175,0.099 0.4395,0.099 0.24,0 0.4245,-0.036 0.5475,-0.1035 0.1275,-0.069 0.219,-0.18 0.2805,-0.333 l 2.325,-5.832 c 0.063,-0.1575 0.06,-0.2685 -0.015,-0.333 -0.0705,-0.0645 -0.2265,-0.0975 -0.4665,-0.0975 -0.222,0 -0.3975,0.036 -0.5205,0.1035 -0.1275,0.069 -0.219,0.1785 -0.2775,0.327 z m 6.8595,0.6 c 0.333,-0.8355 0.909,-1.428 1.7235,-1.7805 0.816,-0.351 2.0055,-0.5265 3.561,-0.5265 1.563,0 2.619,0.174 3.1635,0.522 0.54,0.3495 0.642,0.945 0.3075,1.785 l -0.3945,0.987 -3.7365,0 0.633,-1.587 c 0.0615,-0.1575 0.0585,-0.2685 -0.0165,-0.333 -0.0705,-0.0645 -0.2265,-0.0975 -0.4665,-0.0975 -0.2295,0 -0.405,0.033 -0.5265,0.0975 -0.117,0.0645 -0.2085,0.1755 -0.2715,0.333 l -2.325,5.832 c -0.063,0.1575 -0.06,0.2685 0.0135,0.3375 0.069,0.066 0.2175,0.099 0.4395,0.099 0.2385,0 0.423,-0.036 0.546,-0.1035 0.1275,-0.069 0.219,-0.18 0.282,-0.333 l 0.7155,-1.7985 3.738,0 -0.5145,1.29 c -0.3315,0.831 -0.906,1.422 -1.7205,1.7715 -0.8145,0.3495 -2.013,0.522 -3.585,0.522 -1.5645,0 -2.6145,-0.171 -3.153,-0.516 -0.5325,-0.345 -0.6315,-0.9375 -0.297,-1.7775 l 1.884,-4.7235 z m 7.6215,6.8175 6.57,-8.931 4.815,0 -1.3395,8.931 -3.8955,0 0.579,-2.379 -1.8645,0 -1.4325,2.379 -3.432,0 z m 5.685,-3.693 1.389,0 0.6645,-2.724 c 0.0345,-0.153 0.1275,-0.4305 0.27,-0.831 0.06,-0.174 0.1095,-0.3075 0.1485,-0.405 l -0.144,0 c -0.168,0.342 -0.306,0.615 -0.414,0.8205 -0.108,0.204 -0.1845,0.339 -0.2265,0.4035 l -1.6875,2.736 z m 7.347,3.693 3.0555,-7.665 -2.4,0 0.504,-1.266 8.526,0 -0.5055,1.266 -2.4,0 -3.057,7.665 -3.723,0 z m 7.8915,0 3.5595,-8.931 3.765,0 -3.561,8.931 -3.7635,0 z m 8.6145,-6.8175 c 0.3315,-0.831 0.9075,-1.425 1.728,-1.779 0.825,-0.3525 2.019,-0.528 3.582,-0.528 1.5645,0 2.619,0.174 3.1635,0.522 0.5415,0.3495 0.6435,0.945 0.309,1.785 l -1.8795,4.7115 c -0.333,0.8355 -0.909,1.428 -1.7235,1.779 -0.816,0.3525 -2.0145,0.5265 -3.5865,0.5265 -1.5735,0 -2.631,-0.174 -3.1665,-0.5265 -0.5355,-0.351 -0.639,-0.9435 -0.3045,-1.779 l 1.878,-4.7115 z m 4.0035,-0.6 -2.3265,5.832 c -0.063,0.1575 -0.0585,0.2685 0.0135,0.3375 0.0705,0.066 0.2175,0.099 0.4395,0.099 0.24,0 0.4245,-0.036 0.5475,-0.1035 0.1275,-0.069 0.219,-0.18 0.2805,-0.333 l 2.3265,-5.832 c 0.0615,-0.1575 0.0585,-0.2685 -0.0165,-0.333 -0.0705,-0.0645 -0.2265,-0.0975 -0.4665,-0.0975 -0.222,0 -0.3975,0.036 -0.5205,0.1035 -0.1275,0.069 -0.219,0.1785 -0.2775,0.327 z m 4.1925,7.4175 3.561,-8.931 5.157,0 -0.1845,3.7845 c -0.0165,0.339 -0.069,0.72 -0.1485,1.1385 -0.0795,0.42 -0.201,0.9 -0.357,1.4415 l 0.153,0 c 0.1905,-0.63 0.366,-1.1805 0.522,-1.65 0.1575,-0.471 0.279,-0.8085 0.3615,-1.014 l 1.449,-3.7005 2.949,0 -3.561,8.931 -4.416,0 0.0125,-4.851 c -0.002,-0.1875 0.015,-0.4755 0.0555,-0.8595 0.039,-0.3825 0.0885,-0.8025 0.1485,-1.2585 l -0.099,0 c -0.096,0.372 -0.1875,0.696 -0.267,0.975 -0.081,0.279 -0.159,0.507 -0.2295,0.684 l -2.1165,5.31 -2.9895,0 z m 23.9235,-7.7265 -2.5755,6.462 0.204,0 c 0.3915,0 0.687,-0.039 0.8775,-0.1155 0.192,-0.0765 0.3255,-0.204 0.396,-0.381 l 2.1705,-5.4435 c 0.0825,-0.207 0.0555,-0.345 -0.0825,-0.4155 -0.141,-0.0705 -0.468,-0.1065 -0.99,-0.1065 z m -6.819,7.7265 3.561,-8.931 4.392,0 c 1.599,0 2.6655,0.165 3.1965,0.495 0.5355,0.3285 0.639,0.897 0.318,1.7025 l -1.803,4.524 c -0.321,0.804 -0.9045,1.3725 -1.7535,1.707 -0.8475,0.336 -2.1075,0.5025 -3.7755,0.5025 l -4.1355,0 z m 10.9365,0 3.561,-8.931 7.005,0 -0.495,1.242 -3.24,0 -0.822,2.0595 3.1635,0 -0.5145,1.2885 -3.1635,0 -1.1925,2.991 3.2415,0 -0.5385,1.35 -7.005,0 z m 21.3885,-5.868 0.567,-1.422 c 0.081,-0.2025 0.051,-0.336 -0.087,-0.405 -0.1425,-0.0675 -0.4605,-0.1035 -0.9645,-0.1035 l -0.9735,2.439 0.2055,0 c 0.3915,0 0.681,-0.036 0.8625,-0.111 0.183,-0.075 0.3135,-0.207 0.39,-0.3975 z m -7.3575,5.868 3.5595,-8.931 4.392,0 c 1.533,0 2.589,0.129 3.1785,0.3855 0.5865,0.2565 0.7665,0.6675 0.5415,1.2315 l -0.3735,0.9375 c -0.1875,0.4695 -0.573,0.828 -1.1565,1.077 -0.5835,0.2505 -1.362,0.3885 -2.334,0.414 l -0.0195,0.0465 c 1.059,0.033 1.761,0.1605 2.1015,0.3795 0.342,0.2205 0.4065,0.594 0.1965,1.1235 l -0.906,2.2695 c -0.072,0.1815 -0.1155,0.366 -0.1305,0.5475 -0.0125,0.1845 0.006,0.357 0.0495,0.519 l -3.711,0 c -0.057,-0.153 -0.0795,-0.3255 -0.0705,-0.513 0.009,-0.186 0.06,-0.3885 0.144,-0.6015 l 0.1305,-0.3255 0.7755,-1.9455 c 0.1005,-0.2505 0.075,-0.438 -0.075,-0.567 -0.15,-0.126 -0.4245,-0.189 -0.825,-0.189 l -0.0525,0 -1.6515,4.1415 -3.7635,0 z m 10.7835,0 3.561,-8.931 7.005,0 -0.495,1.242 -3.2415,0 -0.8205,2.0595 3.162,0 -0.513,1.2885 -3.1635,0 -1.1925,2.991 3.2415,0 -0.5385,1.35 -7.005,0 z m 9.063,0 3.561,-8.931 5.385,0 -0.636,4.6635 c -0.039,0.3615 -0.1425,0.861 -0.3,1.494 -0.0125,0.054 -0.018,0.093 -0.021,0.1215 l 0.129,-0.0063 c 0.156,-0.2835 0.318,-0.5595 0.4875,-0.8325 0.1755,-0.273 0.381,-0.573 0.621,-0.9 l 3.279,-4.5405 5.1435,0 -3.561,8.931 -3.4185,0 1.8825,-4.7235 c 0.0975,-0.2445 0.216,-0.528 0.357,-0.8505 0.141,-0.3195 0.306,-0.6795 0.492,-1.0815 l -0.1035,-0.0025 c -0.2595,0.522 -0.582,1.032 -0.9645,1.5255 -0.018,0.0195 -0.0255,0.03 -0.027,0.0345 l -3.8595,5.0985 -3.1875,0 0.18,-4.845 c 0.007,-0.1605 0.0405,-0.396 0.1005,-0.711 0.0585,-0.312 0.144,-0.678 0.2505,-1.0995 l -0.1245,-0.0025 c -0.006,0.0135 -0.033,0.084 -0.081,0.204 -0.7275,1.8675 -1.5765,4.02 -2.5485,6.4545 l -3.036,0 z m 18.939,-6.8175 c 0.3315,-0.831 0.9075,-1.425 1.7295,-1.779 0.8235,-0.3525 2.0175,-0.528 3.582,-0.528 1.5645,0 2.619,0.174 3.1635,0.522 0.54,0.3495 0.6435,0.945 0.3075,1.785 l -1.878,4.7115 c -0.333,0.8355 -0.9105,1.428 -1.725,1.779 -0.816,0.3525 -2.013,0.5265 -3.5865,0.5265 -1.572,0 -2.631,-0.174 -3.165,-0.5265 -0.5355,-0.351 -0.639,-0.9435 -0.306,-1.779 l 1.878,-4.7115 z m 4.0035,-0.6 -2.325,5.832 c -0.063,0.1575 -0.06,0.2685 0.0135,0.3375 0.069,0.066 0.2175,0.099 0.4395,0.099 0.24,0 0.423,-0.036 0.546,-0.1035 0.1275,-0.069 0.2205,-0.18 0.282,-0.333 l 2.325,-5.832 c 0.0615,-0.1575 0.06,-0.2685 -0.015,-0.333 -0.0705,-0.0645 -0.228,-0.0975 -0.4665,-0.0975 -0.222,0 -0.3975,0.036 -0.5205,0.1035 -0.1275,0.069 -0.219,0.1785 -0.279,0.327 z m 11.5785,1.5495 0.5655,-1.422 c 0.081,-0.2025 0.0525,-0.336 -0.087,-0.405 -0.141,-0.0675 -0.459,-0.1035 -0.9645,-0.1035 l -0.972,2.439 0.204,0 c 0.393,0 0.6825,-0.036 0.864,-0.111 0.1815,-0.075 0.3135,-0.207 0.39,-0.3975 z m -7.359,5.868 3.561,-8.931 4.3905,0 c 1.533,0 2.589,0.129 3.18,0.3855 0.5865,0.2565 0.7665,0.6675 0.5415,1.2315 l -0.375,0.9375 c -0.1875,0.4695 -0.573,0.828 -1.1565,1.077 -0.5835,0.2505 -1.362,0.3885 -2.334,0.414 l -0.0195,0.0465 c 1.059,0.033 1.7625,0.1605 2.1015,0.3795 0.3435,0.2205 0.408,0.594 0.1965,1.1235 l -0.9045,2.2695 c -0.072,0.1815 -0.1155,0.366 -0.132,0.5475 -0.0125,0.1845 0.006,0.357 0.051,0.519 l -3.711,0 c -0.057,-0.153 -0.081,-0.3255 -0.0705,-0.513 0.009,-0.186 0.0585,-0.3885 0.144,-0.6015 l 0.1305,-0.3255 0.774,-1.9455 c 0.1005,-0.2505 0.075,-0.438 -0.0735,-0.567 -0.15,-0.126 -0.426,-0.189 -0.8265,-0.189 l -0.0525,0 -1.6515,4.1415 -3.7635,0 z m 17.4015,-7.4175 -2.3265,5.832 c -0.0615,0.1575 -0.0585,0.2685 0.0135,0.3375 0.0705,0.066 0.219,0.099 0.441,0.099 0.24,0 0.423,-0.036 0.546,-0.1035 0.1275,-0.069 0.2205,-0.18 0.2805,-0.333 l 2.3265,-5.832 c 0.063,-0.1575 0.0585,-0.2685 -0.0165,-0.333 -0.0705,-0.0645 -0.2265,-0.0975 -0.4665,-0.0975 -0.222,0 -0.3975,0.036 -0.5205,0.1035 -0.126,0.069 -0.219,0.1785 -0.2775,0.327 z m -4.0035,0.6 c 0.3315,-0.831 0.9075,-1.425 1.728,-1.779 0.825,-0.3525 2.019,-0.528 3.5835,-0.528 1.563,0 2.6175,0.174 3.1635,0.522 0.54,0.3495 0.642,0.945 0.3075,1.785 l -1.884,4.7235 c -0.243,0.6105 -0.588,1.0695 -1.032,1.377 -0.4455,0.3075 -1.0935,0.5475 -1.9455,0.717 -0.039,0.0975 -0.024,0.168 0.051,0.2085 0.0705,0.0435 0.201,0.0645 0.3885,0.0645 l 1.5165,0 -0.519,1.302 -2.322,0 c -0.4845,0 -0.813,-0.114 -0.984,-0.339 -0.177,-0.225 -0.177,-0.552 -0.007,-0.975 l 0.024,-0.0615 c -0.1455,0.0062 -0.282,0.0075 -0.4005,0.0087 -0.1185,0.0012 -0.237,0.005 -0.3465,0.005 -1.4235,0 -2.3925,-0.1845 -2.907,-0.552 -0.5205,-0.366 -0.618,-0.9525 -0.2985,-1.755 l 1.884,-4.7235 z m 20.5395,-2.1135 -2.7255,6.837 c -0.3315,0.831 -0.9075,1.422 -1.722,1.7715 -0.8145,0.3495 -2.0115,0.522 -3.585,0.522 -1.572,0 -2.631,-0.1725 -3.1665,-0.522 -0.5355,-0.3495 -0.6405,-0.9405 -0.309,-1.7715 l 2.7255,-6.837 3.738,0 -2.9295,7.3455 c -0.06,0.153 -0.0525,0.264 0.021,0.333 0.0765,0.0675 0.228,0.1035 0.459,0.1035 0.231,0 0.405,-0.033 0.528,-0.099 0.1185,-0.069 0.2115,-0.18 0.273,-0.3375 l 2.9295,-7.3455 3.7635,0 z m -1.3545,8.931 3.561,-8.931 7.005,0 -0.495,1.242 -3.2415,0 -0.8205,2.0595 3.162,0 -0.513,1.2885 -3.1635,0 -1.1925,2.991 3.2415,0 -0.5385,1.35 -7.005,0 z m 11.8065,-7.3275 c 0.2265,-0.567 0.786,-1.0095 1.683,-1.326 0.897,-0.3135 2.04,-0.471 3.4245,-0.471 1.395,0 2.4075,0.159 3.039,0.4755 0.6315,0.315 0.8295,0.771 0.594,1.359 l -0.5805,1.4595 -3.738,0 0.633,-1.587 c 0.0645,-0.1605 0.0615,-0.273 -0.006,-0.3375 -0.0705,-0.0615 -0.219,-0.093 -0.45,-0.093 -0.24,0 -0.423,0.033 -0.5445,0.1005 -0.1275,0.0675 -0.219,0.177 -0.2805,0.33 l -0.3165,0.7935 c -0.0525,0.135 -0.0645,0.2505 -0.03,0.3495 0.0345,0.096 0.114,0.1935 0.2385,0.2865 l 2.8605,1.884 c 0.27,0.1725 0.441,0.357 0.507,0.5505 0.066,0.195 0.018,0.5025 -0.1515,0.927 l -0.4155,1.041 c -0.228,0.573 -0.783,1.0155 -1.668,1.323 -0.885,0.3075 -2.0325,0.462 -3.435,0.462 -1.437,0 -2.4615,-0.1605 -3.069,-0.483 -0.609,-0.3225 -0.7845,-0.7995 -0.534,-1.428 l 0.6675,-1.6725 3.738,0 -0.717,1.7985 c -0.0615,0.153 -0.0585,0.264 0.015,0.333 0.0675,0.0675 0.2235,0.1035 0.4635,0.1035 0.2235,0 0.3975,-0.033 0.519,-0.099 0.1275,-0.069 0.2205,-0.18 0.2835,-0.3375 l 0.3765,-0.9435 c 0.051,-0.129 0.051,-0.2505 -0.006,-0.36 -0.051,-0.1125 -0.1725,-0.2325 -0.36,-0.3615 l -2.667,-1.824 c -0.2745,-0.186 -0.453,-0.372 -0.5265,-0.5595 -0.072,-0.1875 -0.048,-0.438 0.0795,-0.7545 l 0.0525,-0.132 0.321,-0.807" /><path
     inkscape:connector-curvature="0"
     style="fill:#231f20;fill-opacity:1;fill-rule:evenodd;stroke:none"
     id="path6492"
     d="m 356.0145,39.487425 c 0.01,-0.2085 0.03,-0.417 0.0285,-0.6255 -0.0795,-23.7285 -71.1105,-40.4805 -161.0055,-38.7375 0.591,-0.0125 1.1805,-0.0225 1.77,-0.0315 84.891,0.807 149.256,16.8 149.331,38.802 0,0.2085 -0.0195,0.417 -0.0315,0.6255 l 9.9075,-0.033" /><g
     id="g6494"
     transform="matrix(0,0.15,0.15,0,-309.252,-173.53808)"><g
       id="g6496"
       clip-path="url(#clipPath2010)"><path
         inkscape:connector-curvature="0"
         style="fill:url(#linearGradient6604);fill-opacity:1;fill-rule:nonzero;stroke:none"
         id="path6498"
         d="m 1157.14,3373.81 c 1.29,-77.35 4.54,-154.68 9.72,-231.87 6,-89.32 14.36,-178.69 26.8,-267.37 0.84,-5.95 3.63,-10.43 3.41,0.34 -1.34,65.6 -3.43,131.14 -4.03,196.77 -0.75,82.53 -0.23,165.2 2.18,247.4 13.78,469.87 103.64,817.78 225.28,827.69 l -0.74,222.38 c -1.39,0.07 -2.78,0.2 -4.17,0.2 -146.55,-0.49 -253.07,-429.59 -258.45,-995.54" /></g></g><path
     inkscape:connector-curvature="0"
     style="fill:#231f20;fill-opacity:1;fill-rule:evenodd;stroke:none"
     id="path6522"
     d="m 182.724,88.082925 c 94.9185,-3.2625 172.0305,-24.6645 173.322,-49.14 l -9.906,0 c -1.362,24.4755 -82.623,45.8775 -182.6475,49.14 -3.774,0.123 -7.5225,0.2145 -11.2425,0.2775 -0.1365,-0.0025 -0.2715,-0.0063 -0.4065,-0.0088 10.029,0.1965 20.3505,0.093 30.8805,-0.2685" /><g
     id="g6524"
     transform="matrix(0,0.15,0.15,0,-309.252,-173.53808)"><g
       id="g6526"
       clip-path="url(#clipPath2192)"><path
         inkscape:connector-curvature="0"
         style="fill:url(#linearGradient6606);fill-opacity:1;fill-rule:nonzero;stroke:none"
         id="path6528"
         d="m 1416.44,4146.96 c 1.7,0.13 3.41,0.25 5.12,0.25 148.45,0 284.84,-500.76 304.58,-1118.26 1.18,-37.02 1.56,-73.63 1.38,-109.75 -0.14,-26.3 -1.16,-52.58 -0.33,-78.87 0.28,-8.98 1.82,-17.95 4.81,-0.76 4.41,25.47 5.58,51.97 7.48,77.71 1.68,22.58 3.06,45.46 4.18,68.63 1.45,29.83 2.44,60.13 3.01,90.82 -0.41,24.81 -1.03,49.79 -1.85,74.96 -21.8,666.83 -164.82,1208.56 -328.38,1217.64 l 0,-222.37" /></g></g></svg>